<svg viewBox="0 0 150 165.06" xmlns="http://www.w3.org/2000/svg"><path d="m49.22 115.5a45.64 45.64 0 0 1 -13.22-32.39 45.16 45.16 0 0 1 13.45-32.27 18 18 0 1 0 -25.36-25.47 81.67 81.67 0 0 0 -.35 115.49 18 18 0 1 0 25.48-25.36z" fill="#ffda00"/><path d="m49.45 50.84a45.79 45.79 0 0 1 64.66.23 18 18 0 1 0 25.47-25.35 81.39 81.39 0 0 0 -115.37-.47 18 18 0 1 0 25.24 25.59z" fill="#67b3ff"/><path d="m114 115.73a45.68 45.68 0 0 1 -32.4 13.27 45.16 45.16 0 0 1 -32.27-13.5 18 18 0 1 0 -25.47 25.36 81.54 81.54 0 0 0 115.49.46 18 18 0 0 0 -25.35-25.59z" fill="#eb5a68"/><path d="m49.45 50.84a18 18 0 1 1 .11-25.36 18 18 0 0 1 -.11 25.36z" fill="#47a1ff"/><path d="m49.1 140.86a18 18 0 1 1 .12-25.36 18 18 0 0 1 -.12 25.36z" fill="#d5465f"/></svg>
